<?xml version="1.0" encoding="UTF-8" standalone="no"?>
<svg
   xmlns:dc="http://purl.org/dc/elements/1.1/"
   xmlns:cc="http://creativecommons.org/ns#"
   xmlns:rdf="http://www.w3.org/1999/02/22-rdf-syntax-ns#"
   xmlns:svg="http://www.w3.org/2000/svg"
   xmlns="http://www.w3.org/2000/svg"
   xmlns:sodipodi="http://sodipodi.sourceforge.net/DTD/sodipodi-0.dtd"
   xmlns:inkscape="http://www.inkscape.org/namespaces/inkscape"
   sodipodi:docname="re3_final.svg"
   inkscape:version="1.0.1 (3bc2e813f5, 2020-09-07)"
   id="svg8"
   version="1.1"
   viewBox="0 0 270.93331 270.93334"
   height="1024"
   width="1024"
   inkscape:export-filename="/home/hazelnot/Design/re3_red.png"
   inkscape:export-xdpi="96"
   inkscape:export-ydpi="96">
  <defs
     id="defs2" />
  <sodipodi:namedview
     inkscape:window-maximized="1"
     inkscape:window-y="0"
     inkscape:window-x="0"
     inkscape:window-height="1359"
     inkscape:window-width="2560"
     inkscape:snap-page="true"
     inkscape:showpageshadow="false"
     inkscape:pagecheckerboard="false"
     showgrid="false"
     inkscape:document-rotation="0"
     inkscape:current-layer="g837"
     inkscape:document-units="mm"
     inkscape:cy="544.84615"
     inkscape:cx="415.73725"
     inkscape:zoom="0.7"
     inkscape:pageshadow="2"
     inkscape:pageopacity="0"
     borderopacity="1"
     bordercolor="#000000"
     pagecolor="#606060"
     id="base"
     fit-margin-top="0"
     fit-margin-left="0"
     fit-margin-right="0"
     fit-margin-bottom="0"
     lock-margins="false"
     units="px" />
  <metadata
     id="metadata5">
    <rdf:RDF>
      <cc:Work
         rdf:about="">
        <dc:format>image/svg+xml</dc:format>
        <dc:type
           rdf:resource="http://purl.org/dc/dcmitype/StillImage" />
        <dc:title></dc:title>
      </cc:Work>
    </rdf:RDF>
  </metadata>
  <g
     id="g837"
     transform="matrix(2.1130708,0,0,2.1130708,14.956432,63.50059)">
    <path
       id="path1450"
       style="color:#000000;font-style:normal;font-variant:normal;font-weight:normal;font-stretch:normal;font-size:medium;line-height:1.25;font-family:sans-serif;font-variant-ligatures:normal;font-variant-position:normal;font-variant-caps:normal;font-variant-numeric:normal;font-variant-alternates:normal;font-variant-east-asian:normal;font-feature-settings:normal;font-variation-settings:normal;text-indent:0;text-align:start;text-decoration:none;text-decoration-line:none;text-decoration-style:solid;text-decoration-color:#000000;letter-spacing:normal;word-spacing:normal;text-transform:none;writing-mode:lr-tb;direction:ltr;text-orientation:mixed;dominant-baseline:auto;baseline-shift:baseline;text-anchor:start;white-space:normal;shape-padding:0;shape-margin:0;inline-size:0;clip-rule:nonzero;display:inline;overflow:visible;visibility:visible;isolation:auto;mix-blend-mode:normal;color-interpolation:sRGB;color-interpolation-filters:linearRGB;solid-color:#000000;solid-opacity:1;vector-effect:none;fill:#ffffff;fill-opacity:1;fill-rule:nonzero;stroke:#000000;stroke-width:1.836;stroke-linecap:butt;stroke-linejoin:miter;stroke-miterlimit:4;stroke-dasharray:none;stroke-dashoffset:0;stroke-opacity:1;paint-order:stroke fill markers;color-rendering:auto;image-rendering:auto;shape-rendering:auto;text-rendering:auto;enable-background:accumulate;stop-color:#000000;stop-opacity:1"
       d="M 0.91799998,0.91799998 V 54.101316 H 17.960888 v 2.33009 c 0,2.95453 1.347497,6.384348 3.911905,8.332308 2.564408,1.947971 5.514112,2.433445 8.500257,2.433445 h 46.367194 v -14.5464 c 2.171993,1.134845 4.548071,1.450557 6.948413,1.450557 h 17.042893 c 2.98614,0 5.93584,-0.485482 8.50025,-2.433442 2.5644,-1.94796 3.91191,-5.377273 3.91191,-8.331793 V 30.964744 c 0,-1.094128 -0.25094,-2.296243 -0.70487,-3.457153 0.45593,-1.16196 0.70487,-2.363609 0.70487,-3.453019 V 11.81656 c 0,-2.9682265 -1.29681,-6.3966108 -3.85713,-8.3907028 -2.56031,-1.9940909 -5.55104,-2.50785722 -8.55503,-2.50785722 H 83.819398 c -3.003989,0 -5.99213,0.51376632 -8.55245,2.50785722 C 74.832145,3.7645045 74.436551,4.1470248 74.074773,4.5591214 73.713016,4.1470532 73.317379,3.7644843 72.8826,3.4258572 70.322288,1.4317663 67.332073,0.91799998 64.328081,0.91799998 H 47.285195 c -2.976748,0 -5.937909,0.51342982 -8.482687,2.46289872 C 36.275393,1.4370808 33.325985,0.91799998 30.37305,0.91799998 Z"
       inkscape:label="Border" />
    <g
       id="g1475"
       inkscape:label="Text"
       style="display:inline"
       transform="translate(-51.547657,-77.439255)">
      <path
         style="color:#000000;font-style:normal;font-variant:normal;font-weight:normal;font-stretch:normal;font-size:medium;line-height:1.25;font-family:sans-serif;font-variant-ligatures:normal;font-variant-position:normal;font-variant-caps:normal;font-variant-numeric:normal;font-variant-alternates:normal;font-variant-east-asian:normal;font-feature-settings:normal;font-variation-settings:normal;text-indent:0;text-align:start;text-decoration:none;text-decoration-line:none;text-decoration-style:solid;text-decoration-color:#000000;letter-spacing:normal;word-spacing:normal;text-transform:none;writing-mode:lr-tb;direction:ltr;text-orientation:mixed;dominant-baseline:auto;baseline-shift:baseline;text-anchor:start;white-space:normal;shape-padding:0;shape-margin:0;inline-size:0;clip-rule:nonzero;display:inline;overflow:visible;visibility:visible;opacity:1;isolation:auto;mix-blend-mode:normal;color-interpolation:sRGB;color-interpolation-filters:linearRGB;solid-color:#000000;solid-opacity:1;vector-effect:none;fill:#000000;fill-opacity:1;fill-rule:nonzero;stroke:none;stroke-width:11.136;stroke-linecap:butt;stroke-linejoin:miter;stroke-miterlimit:4;stroke-dasharray:none;stroke-dashoffset:0;stroke-opacity:1;paint-order:stroke fill markers;color-rendering:auto;image-rendering:auto;shape-rendering:auto;text-rendering:auto;enable-background:accumulate;stop-color:#000000;stop-opacity:1"
         d="m 84.566726,139.06892 c -4.562445,0 -6.843668,-1.73285 -6.843668,-5.19856 v -24.61088 c 0,-0.0877 -0.04387,-0.13161 -0.131609,-0.13161 h -3.22442 v 16.84595 H 60.679694 V 83.92475 h 23.887032 c 4.518575,0 6.777863,1.776721 6.777863,5.330164 v 12.239636 c 0,2.01801 -1.118676,3.15862 -3.356029,3.42183 2.281223,0.30709 3.421834,1.46964 3.421834,3.48764 v 20.07037 c 0,0.0877 0.04387,0.13161 0.131609,0.13161 h 33.823507 v 10.46292 z M 77.723058,94.585079 c 0,-0.08774 -0.04387,-0.131609 -0.131609,-0.131609 h -3.22442 v 6.31723 h 3.22442 c 0.08774,0 0.131609,-0.0439 0.131609,-0.13161 z m 33.955122,0 c 0,-0.08774 -0.0439,-0.131609 -0.13161,-0.131609 h -3.09281 c -0.0877,0 -0.13161,0.04387 -0.13161,0.131609 v 5.856601 h 3.35603 z m -10.1997,31.388741 c -4.562444,0 -6.843666,-1.73285 -6.843666,-5.19855 V 89.254914 c 0,-3.553443 2.281222,-5.330164 6.843666,-5.330164 h 17.04337 c 4.56244,0 6.84366,1.776721 6.84366,5.330164 v 20.991636 h -17.04336 v 5.13275 c 0,0.0877 0.0439,0.13161 0.13161,0.13161 h 3.09281 c 0.0877,0 0.13161,-0.0439 0.13161,-0.13161 v -2.50057 h 13.68733 v 7.89654 c 0,3.4657 -2.28122,5.19855 -6.84366,5.19855 z"
         id="path1452"
         transform="translate(-2.6458322)"
         inkscape:label="re" />
      <path
         style="color:#000000;font-style:normal;font-variant:normal;font-weight:normal;font-stretch:normal;font-size:medium;line-height:1.25;font-family:Pricedown;-inkscape-font-specification:Pricedown;font-variant-ligatures:normal;font-variant-position:normal;font-variant-caps:normal;font-variant-numeric:normal;font-variant-alternates:normal;font-variant-east-asian:normal;font-feature-settings:normal;font-variation-settings:normal;text-indent:0;text-align:start;text-decoration:none;text-decoration-line:none;text-decoration-style:solid;text-decoration-color:#000000;letter-spacing:normal;word-spacing:normal;text-transform:none;writing-mode:lr-tb;direction:ltr;text-orientation:mixed;dominant-baseline:auto;baseline-shift:baseline;text-anchor:start;white-space:normal;shape-padding:0;shape-margin:0;inline-size:0;clip-rule:nonzero;display:inline;overflow:visible;visibility:visible;isolation:auto;mix-blend-mode:normal;color-interpolation:sRGB;color-interpolation-filters:linearRGB;solid-color:#000000;solid-opacity:1;vector-effect:none;fill:#c60000;fill-opacity:1;fill-rule:nonzero;stroke:none;stroke-width:11.136;stroke-linecap:butt;stroke-linejoin:miter;stroke-miterlimit:4;stroke-dasharray:none;stroke-dashoffset:0;stroke-opacity:1;paint-order:stroke fill markers;color-rendering:auto;image-rendering:auto;shape-rendering:auto;text-rendering:auto;enable-background:accumulate;stop-color:#000000;stop-opacity:1"
         d="m 135.23613,125.97382 c -4.56245,0 -6.84367,-1.73285 -6.84367,-5.19855 v -7.89654 h 13.68733 v 2.50057 c 0,0.0877 0.0439,0.13161 0.13161,0.13161 h 3.09281 c 0.0877,0 0.13161,-0.0439 0.13161,-0.13161 v -6.11982 c 0,-0.0877 -0.0439,-0.13161 -0.13161,-0.13161 h -16.71434 v -8.35717 h 16.71434 c 0.0877,0 0.13161,-0.0439 0.13161,-0.13161 v -6.054011 c 0,-0.08774 -0.0439,-0.131609 -0.13161,-0.131609 h -3.09281 c -0.0877,0 -0.13161,0.04387 -0.13161,0.131609 v 2.434766 h -13.55572 v -7.764931 c 0,-3.553443 2.28122,-5.330164 6.84366,-5.330164 h 16.91176 c 4.56245,0 6.84367,1.776721 6.84367,5.330164 v 12.239636 c 0,2.01801 -1.14061,3.15862 -3.42184,3.42183 2.28123,0.30709 3.42184,1.46964 3.42184,3.48764 v 12.37125 c 0,3.4657 -2.28122,5.19855 -6.84367,5.19855 z"
         id="path1458"
         inkscape:label="3" />
    </g>
  </g>
</svg>
